<svg xmlns="http://www.w3.org/2000/svg" viewBox="0 0 900 600">
  <defs>
    <linearGradient id="a" x1="0%" x2="100%" y1="0%" y2="100%">
      <stop offset="0%" stop-color="#360714"/>
      <stop offset="100%" stop-color="#007fff"/>
    </linearGradient>
  </defs>
  <path fill="#0000" d="M0 0h900v600H0z"/>
  <path fill="url(#a)" d="M145-189c43 21 79 63 84 108 4 44-22 92-28 157-7 64 6 146-24 198-30 53-103 77-159 51-55-25-91-99-149-143-57-44-135-57-175-101-41-45-44-120-13-174 32-54 98-87 157-103s111-17 162-16c51 0 102 1 145 23" transform="translate(505 238)"/>
</svg>
