<svg id="visual" viewBox="0 0 900 600" width="900" height="600" xmlns="http://www.w3.org/2000/svg" xmlns:xlink="http://www.w3.org/1999/xlink" version="1.1">
  <defs>
    <linearGradient id="grad1" x1="0%" y1="0%" x2="100%" y2="100%">
      <stop offset="0%" style="stop-color:hsl(343, 77%, 12%); stop-opacity:1" />
      <stop offset="60%" style="stop-color:hsl(18, 22%, 17%); stop-opacity:1" />
    </linearGradient>
  </defs>
  <style>
    #visual rect {
      fill: #000;
    }

    #visual path {
      fill: url(#grad1);
    }
  </style>
  <rect x="0" y="0" width="900" height="600"></rect>
  <g transform="translate(505.357991692008 238.4610441796088)">
    <path d="M144.8 -189.3C188 -167.8 223.8 -126.1 228.6 -81.4C233.3 -36.7 207 11 200.5 75.6C193.9 140.3 207.2 221.8 177.1 274.4C146.9 326.9 73.5 350.5 18.4 325.2C-36.7 299.9 -73.5 225.8 -130.7 182.1C-187.9 138.3 -265.6 124.9 -306.2 80.5C-346.8 36.1 -350.3 -39.5 -318.8 -93.4C-287.2 -147.3 -220.6 -179.6 -161.6 -196C-102.7 -212.3 -51.3 -212.7 -0.3 -212.2C50.7 -211.8 101.5 -210.7 144.8 -189.3"></path>
  </g>
</svg>
