<svg id="visual" viewBox="0 0 900 600" width="900" height="600" xmlns="http://www.w3.org/2000/svg" xmlns:xlink="http://www.w3.org/1999/xlink" version="1.1">
  <rect x="0" y="0" width="900" height="600" fill="#001220"></rect>
  <path d="M0 375L21.5 373.7C43 372.3 86 369.7 128.8 375.5C171.7 381.3 214.3 395.7 257.2 402.3C300 409 343 408 385.8 410.3C428.7 412.7 471.3 418.3 514.2 415.3C557 412.3 600 400.7 642.8 395.8C685.7 391 728.3 393 771.2 389C814 385 857 375 878.5 370L900 365L900 601L878.5 601C857 601 814 601 771.2 601C728.3 601 685.7 601 642.8 601C600 601 557 601 514.2 601C471.3 601 428.7 601 385.8 601C343 601 300 601 257.2 601C214.3 601 171.7 601 128.8 601C86 601 43 601 21.5 601L0 601Z" fill="#fa7268"></path>
  <path d="M0 471L21.5 463.3C43 455.7 86 440.3 128.8 431.7C171.7 423 214.3 421 257.2 421.7C300 422.3 343 425.7 385.8 430.7C428.7 435.7 471.3 442.3 514.2 443.5C557 444.7 600 440.3 642.8 438.2C685.7 436 728.3 436 771.2 433C814 430 857 424 878.5 421L900 418L900 601L878.5 601C857 601 814 601 771.2 601C728.3 601 685.7 601 642.8 601C600 601 557 601 514.2 601C471.3 601 428.7 601 385.8 601C343 601 300 601 257.2 601C214.3 601 171.7 601 128.8 601C86 601 43 601 21.5 601L0 601Z" fill="#ef5f67"></path>
  <path d="M0 449L21.5 453.3C43 457.7 86 466.3 128.8 465C171.7 463.7 214.3 452.3 257.2 449.2C300 446 343 451 385.8 461C428.7 471 471.3 486 514.2 493.3C557 500.7 600 500.3 642.8 502C685.7 503.7 728.3 507.3 771.2 508.2C814 509 857 507 878.5 506L900 505L900 601L878.5 601C857 601 814 601 771.2 601C728.3 601 685.7 601 642.8 601C600 601 557 601 514.2 601C471.3 601 428.7 601 385.8 601C343 601 300 601 257.2 601C214.3 601 171.7 601 128.8 601C86 601 43 601 21.5 601L0 601Z" fill="#e34c67"></path>
  <path d="M0 496L21.5 496C43 496 86 496 128.8 496.7C171.7 497.3 214.3 498.7 257.2 504.8C300 511 343 522 385.8 520.2C428.7 518.3 471.3 503.7 514.2 501.2C557 498.7 600 508.3 642.8 512.8C685.7 517.3 728.3 516.7 771.2 515.2C814 513.7 857 511.3 878.5 510.2L900 509L900 601L878.5 601C857 601 814 601 771.2 601C728.3 601 685.7 601 642.8 601C600 601 557 601 514.2 601C471.3 601 428.7 601 385.8 601C343 601 300 601 257.2 601C214.3 601 171.7 601 128.8 601C86 601 43 601 21.5 601L0 601Z" fill="#d53867"></path>
  <path d="M0 573L21.5 572.2C43 571.3 86 569.7 128.8 562.3C171.7 555 214.3 542 257.2 539.7C300 537.3 343 545.7 385.8 551.3C428.7 557 471.3 560 514.2 557.5C557 555 600 547 642.8 548.7C685.7 550.3 728.3 561.7 771.2 566.3C814 571 857 569 878.5 568L900 567L900 601L878.5 601C857 601 814 601 771.2 601C728.3 601 685.7 601 642.8 601C600 601 557 601 514.2 601C471.3 601 428.7 601 385.8 601C343 601 300 601 257.2 601C214.3 601 171.7 601 128.8 601C86 601 43 601 21.5 601L0 601Z" fill="#c62368"></path>
</svg>