<svg xmlns="http://www.w3.org/2000/svg" width="2000" height="1400">
  <g id="Layer_2" data-name="Layer 2">
    <path d="m2001,12.77v1229.43H1V17.2c65.04,2.95,130.07,5.89,188,9s108.76,6.37,167,4,123.91-10.39,186-15,120.62-5.81,181,0,122.61,18.65,182,17,115.93-17.78,179-24c63.07-6.22,132.68-2.55,197-4,42.7-.97,83.06-4.2,122.83-4.2,20.14,0,40.12.83,60.17,3.2,59.64,7.04,119.87,27.72,179,29s117.15-16.85,183-23,139.53-.33,170,3c1.82.2,3.48.39,5,.57Z" stroke-width="0"/>
  </g>
  <g id="Layer_1" data-name="Layer 1">
    <path d="m1403.83,0c-39.77,0-80.13,3.23-122.83,4.2-64.32,1.45-133.93-2.22-197,4-63.07,6.22-119.61,22.35-179,24s-121.62-11.19-182-17-118.91-4.61-181,0-127.76,12.63-186,15-109.07-.89-167-4S66.04,20.15,1,17.2V0h1402.83Z" fill="none" stroke-width="0"/>
    <path d="m1,192.2h0c61.25.95,122.5,1.9,181,1,58.5-.9,114.25-3.64,172-10s117.49-16.33,183-13,136.8,19.96,198,28,112.32,7.5,169,6,118.91-3.97,180-2,121.05,8.38,186,7,134.88-10.56,195-19,110.42-16.14,164-15,110.42,11.11,184,18,163.88,10.68,198,10" fill="none" stroke="#8a8a8a" stroke-linecap="round" stroke-width="2"/>
    <path d="m1,367.2h0c58.97-3.16,117.93-6.32,180-2s127.24,16.11,188,23,117.12,8.86,178-2,126.27-34.56,188-35c61.73-.44,119.79,22.37,180,30s122.58.07,182-1,115.88,4.36,174,4,117.9-6.49,179-7,123.52,4.61,184,2,119.01-12.93,190-20,154.43-10.88,186-9" fill="none" stroke="#dcdcdb" stroke-linecap="round" stroke-width="2"/>
    <path d="m1,542.2h0c61.39-10.98,122.78-21.97,182-17,59.23,4.97,116.29,25.88,178,26s128.07-20.57,187-30,110.43-7.6,170,3,127.21,29.98,191,35,123.73-4.31,182-2,114.86,16.25,175,6,123.84-44.69,189-43,131.77,39.5,188,42,102.06-30.33,171-42,160.98-2.19,196,5" fill="none" stroke="#929292" stroke-linecap="round" stroke-width="2"/>
    <path d="m1,717.2h0c55.44-1.26,110.88-2.53,171,0,60.12,2.53,124.93,8.84,189,10s127.39-2.82,185,0,109.51,12.44,173,7,138.56-25.95,200-31,109.26,5.37,168,12,128.4,9.46,189,5,112.15-16.2,173-23,130.99-8.65,193,2,115.89,33.79,184,34,150.46-22.51,182-29" fill="none" stroke="#8e8e8e" stroke-linecap="round" stroke-width="2"/>
    <path d="m1,892.2h0c58.09-1.47,116.18-2.95,175-8,58.82-5.05,118.36-13.69,181-10s128.37,19.7,194,23,131.17-6.1,187-5,101.95,12.71,162,17,134.02,1.27,200-7,123.97-21.77,182-27,116.09-2.18,177,5,124.68,18.5,181,22,105.2-.83,174-8,157.51-17.19,192-18" fill="none" stroke="#f8f8f8" stroke-linecap="round" stroke-width="2"/>
    <path d="m1,1067.2h0c61.15-10,122.3-20.01,181-18s114.96,16.02,174,25,120.86,12.92,183,3,124.6-33.68,183-31,112.72,31.82,177,38,138.5-10.6,203-16,119.28.59,179,2c59.72,1.41,124.37-1.75,183,1s111.25,11.42,169,15,120.62,2.08,188-3,152.83-16.06,183.58-19.32" fill="none" stroke="#555" stroke-linecap="round" stroke-width="2"/>
  </g>
</svg>